<svg viewBox="0 0 16 16" fill="none" xmlns="http://www.w3.org/2000/svg">
<path d="M1.07026 6C0.389578 5.41165 3.17845e-07 4.72857 3.49692e-07 4C4.46256e-07 1.79086 3.58172 -1.93129e-07 8 0C12.4183 1.93129e-07 16 1.79086 16 4C16 4.72858 15.6104 5.41165 14.9297 6C15.6104 6.58835 16 7.27143 16 8C16 8.72857 15.6104 9.41165 14.9297 10C15.6104 10.5883 16 11.2714 16 12C16 14.2091 12.4183 16 8 16C3.58172 16 -9.65645e-08 14.2091 0 12C3.1847e-08 11.2714 0.389578 10.5883 1.07026 10C0.389578 9.41165 1.42996e-07 8.72857 1.74843e-07 8C2.0669e-07 7.27142 0.389578 6.58835 1.07026 6Z" fill="currentColor"/>
</svg>
